<?xml version="1.0" encoding="UTF-8" standalone="no"?>
<!-- Created with Inkscape (http://www.inkscape.org/) -->

<svg
   width="208mm"
   height="73mm"
   viewBox="0 0 208 73"
   version="1.1"
   id="svg5"
   inkscape:version="1.1 (c68e22c387, 2021-05-23)"
   sodipodi:docname="bsloot.svg"
   inkscape:export-filename="D:\projects\baloot\front\src\assets\kaloot.png"
   inkscape:export-xdpi="96"
   inkscape:export-ydpi="96"
   xmlns:inkscape="http://www.inkscape.org/namespaces/inkscape"
   xmlns:sodipodi="http://sodipodi.sourceforge.net/DTD/sodipodi-0.dtd"
   xmlns="http://www.w3.org/2000/svg"
   xmlns:svg="http://www.w3.org/2000/svg">
  <sodipodi:namedview
     id="namedview7"
     pagecolor="#ffffff"
     bordercolor="#666666"
     borderopacity="1.0"
     inkscape:pageshadow="2"
     inkscape:pageopacity="0.0"
     inkscape:pagecheckerboard="0"
     inkscape:document-units="mm"
     showgrid="false"
     inkscape:zoom="0.64854095"
     inkscape:cx="104.07978"
     inkscape:cy="154.96323"
     inkscape:window-width="1920"
     inkscape:window-height="1001"
     inkscape:window-x="-9"
     inkscape:window-y="-9"
     inkscape:window-maximized="1"
     inkscape:current-layer="layer1" />
  <defs
     id="defs2" />
  <g
     inkscape:label="Layer 1"
     inkscape:groupmode="layer"
     id="layer1">
    <g
       id="g2823" />
    <path
       id="path2226"
       style="opacity:0.709343;fill:#054ada;fill-opacity:1;stroke:#ffffff;stroke-width:0.0362352"
       d="m 184.28149,3.923111 c -0.88241,0.45371 -0.0125,1.71885 -0.003,2.41418 3.80897,15.22541 7.59779,30.46044 11.59914,45.63442 0.33439,0.65672 1.3152,0.28961 1.05777,-0.48885 1.92027,-14.36214 3.96797,-28.72519 5.85702,-43.0803 -1.00522,-0.86041 -2.56806,-0.79819 -3.79287,-1.22966 -4.90071,-1.10309 -9.81298,-2.19171 -14.71792,-3.2498 z m -96.481993,5.19036 c -0.04707,-0.0116 -0.09901,-0.01 -0.154241,0.01 -3.107008,1.12618 -6.374073,1.95914 -9.402922,3.20099 1.38216,17.9802 2.417586,36.01539 3.861504,54.00085 0.791271,0.59572 2.038832,0.23214 2.996652,0.42066 1.763834,0.006 3.590015,0.26707 5.316336,3.1e-4 -0.290093,-11.15664 -0.843398,-22.34934 -1.239091,-33.51982 -0.373158,-7.92421 -0.494415,-15.86887 -1.126781,-23.77636 -0.0127,-0.14688 -0.11025,-0.30205 -0.251459,-0.33675 z m -73.020561,4.46468 c -0.04423,0.0147 -0.08903,0.0292 -0.133272,0.044 -0.329501,0.01 -0.746998,0.19445 -1.159723,0.38007 -1.78757,0.5921 -3.581246,1.17897 -5.3761972,1.76446 -0.4198806,0.12707 -0.8342848,0.26144 -1.2403897,0.40698 -0.4498033,0.14674 -0.8981832,0.29529 -1.3476286,0.44216 -3.05e-4,0.001 -1.37e-5,0.002 -3.739e-4,0.004 -0.096125,0.38423 -0.140076,0.78363 -0.1523797,1.19226 -0.00615,0.20415 -0.00459,0.41051 0.00225,0.61843 9.9e-6,2.6e-4 3.28e-5,7.9e-4 3.88e-5,0.001 0.00682,0.20676 0.018544,0.41497 0.032968,0.62395 7.52e-5,10e-4 4.06e-5,0.002 1.549e-4,0.004 0.029031,0.41955 0.068361,0.84193 0.096457,1.26122 7.28e-5,0.001 4.36e-5,0.002 1.549e-4,0.004 0.024123,0.36009 0.035905,0.71676 0.030541,1.06829 -9.07e-4,0.0577 0.00162,0.11644 -5.005e-4,0.17378 l 1.549e-4,0.004 c 0.5975606,14.61313 1.1950704,29.22617 1.7926305,43.83932 l 8.404e-4,0.0217 c 0.662643,0.44863 1.645549,0.31786 2.5657342,0.29722 0.141706,-10e-4 0.280845,0.001 0.418135,0.007 0.02455,0.001 0.05017,6e-5 0.07455,0.002 0.156982,0.009 0.309719,0.0249 0.456102,0.0527 0.599959,5.7e-4 1.204286,0.0242 1.810075,0.0545 0.104614,0.005 0.209326,0.0108 0.314024,0.0162 0.659726,0.0351 1.319282,0.066 1.978011,0.0909 0.272193,0.0101 0.543543,0.0152 0.814717,0.0186 0.405916,0.005 0.811723,0.009 1.213956,-0.008 6.87e-4,-3e-5 0.0014,-5e-5 0.0021,-8e-5 0.361772,-6.1e-4 0.724874,0.005 1.083565,-0.01 -4.32e-4,-0.0241 -0.0019,-0.0483 -0.0023,-0.0724 0.02548,-0.003 0.05131,-0.004 0.07679,-0.007 -0.03701,-1.34542 -0.09136,-2.69307 -0.151922,-4.04135 -0.01765,-0.39355 -0.03702,-0.78735 -0.05611,-1.18106 -0.04409,-0.90792 -0.09054,-1.81609 -0.139731,-2.72464 -0.08832,-1.63147 -0.179412,-3.26308 -0.269339,-4.89475 -0.0058,-0.10476 -0.01162,-0.20952 -0.01738,-0.31427 -5.44e-4,-0.01 -0.0011,-0.0196 -0.0017,-0.0295 -3.95e-4,-0.008 -5.04e-4,-0.0152 -8.79e-4,-0.0227 -0.07026,-1.40686 -0.136754,-2.81309 -0.191392,-4.21771 1.793399,-1.96057 3.472935,-4.03422 5.404545,-5.86348 0.407586,1.0801 0.800636,2.16663 1.198566,3.25091 0.0021,0.006 0.0042,0.0111 0.0064,0.0169 0.0018,0.005 0.0035,0.01 0.0053,0.0143 1.578402,4.36413 3.1067,8.74729 4.697411,13.1067 0.467234,1.28305 0.939375,2.56429 1.421598,3.84165 1.29e-4,2.5e-4 2.03e-4,7.8e-4 5.67e-4,9.8e-4 0.305453,0.83106 0.604283,1.66456 0.915287,2.49339 0.630191,0.28221 1.356167,0.29389 2.089047,0.27381 0.0013,0 0.0024,-1.4e-4 0.0036,-1.4e-4 0.361829,3.8e-4 0.726347,-0.012 1.087834,-0.0199 0.02352,-3.8e-4 0.0473,-8.3e-4 0.07081,-7.4e-4 0.183795,0.003 0.365575,0.0104 0.542609,0.0296 0.17846,-0.006 0.359558,-0.002 0.539243,-0.004 0.01874,10e-4 0.03832,0.002 0.05699,0.003 0.138059,-0.008 0.280051,-0.004 0.419646,-0.007 0.0039,-8e-5 0.0079,2.2e-4 0.01189,7e-5 0.565643,0.003 1.132594,0.008 1.698581,0.007 l 5.28e-4,-2e-5 c 0.07067,2.7e-4 0.140266,-0.004 0.210838,-0.004 0.0064,-3e-5 0.01268,-7e-4 0.01912,-7.4e-4 0.71628,-0.007 1.428137,-0.0334 2.119947,-0.14321 -0.04757,-0.22407 -0.103743,-0.44764 -0.159958,-0.67127 l -2e-5,-5.3e-4 c -0.03066,-0.21311 -0.07984,-0.42717 -0.143823,-0.6419 -0.0034,-0.0116 -0.0067,-0.0232 -0.01015,-0.0347 -0.06487,-0.21331 -0.138012,-0.42707 -0.218776,-0.64106 -8.71e-4,-0.002 -0.0015,-0.004 -0.0023,-0.006 -0.251594,-0.81433 -0.530105,-1.62784 -0.811377,-2.44106 -0.251358,-0.77886 -0.509618,-1.55553 -0.762747,-2.33382 -0.0028,-0.01 -0.0058,-0.0191 -0.0089,-0.0286 -0.01386,-0.0438 -0.02908,-0.0874 -0.04181,-0.13129 -0.868116,-2.65706 -1.736489,-5.31429 -2.604591,-7.97181 -0.168458,-0.51569 -0.337343,-1.0311 -0.505737,-1.54685 -0.366649,-1.11918 -0.727708,-2.24012 -1.092123,-3.36002 -1.125323,-3.45901 -2.240306,-6.9213 -3.313463,-10.39666 1.05852,-1.50793 2.181194,-2.97379 3.321224,-4.42832 0.354208,-0.44574 0.709605,-0.89071 1.064766,-1.33571 1.774887,-2.20729 3.556148,-4.41011 5.260057,-6.66927 0.626924,-0.81599 1.249908,-1.63485 1.861473,-2.46243 -0.003,-0.0289 -0.01782,-0.0498 -0.02365,-0.0766 0.01064,-0.0466 0.02066,-0.0928 0.02169,-0.13427 0.0011,-0.001 0.002,-0.003 0.0029,-0.004 -8.7e-4,-0.002 -0.0022,-0.003 -0.0033,-0.005 0.0033,-0.42472 -0.51774,-0.56851 -1.018197,-0.70524 -0.166998,-0.0579 -0.338192,-0.11079 -0.510532,-0.16277 -0.08409,-0.0344 -0.159838,-0.0721 -0.220172,-0.11662 -1.126746,-0.38946 -2.248899,-0.84923 -3.373485,-1.28366 -0.06673,-0.0257 -0.133661,-0.0485 -0.200422,-0.074 -1.035161,-0.39663 -2.072552,-0.77011 -3.118302,-1.03758 -7.63e-4,8.3e-4 -0.0019,10e-4 -0.0025,0.002 l -5.28e-4,2e-5 c -0.0059,0.005 -0.01149,0.0116 -0.01745,0.0172 -0.03596,-0.009 -0.07167,-0.0204 -0.107654,-0.029 -0.729086,0.74768 -1.458997,1.50435 -2.187548,2.25528 -0.002,0.002 -0.0043,0.004 -0.0065,0.006 -0.720079,0.71267 -1.431479,1.43621 -2.142074,2.16093 -0.43574,0.44421 -0.87125,0.88865 -1.304723,1.33569 -1.209204,1.24775 -2.415534,2.49947 -3.621563,3.75111 -0.138849,0.14401 -0.27767,0.28808 -0.416633,0.43194 -1.062106,1.10023 -2.127916,2.19583 -3.205018,3.27677 -0.445028,0.45478 -0.893658,0.90565 -1.339414,1.36133 -0.0016,0.002 -0.0034,0.003 -0.005,0.005 -0.742772,0.74661 -1.482798,1.49681 -2.230135,2.23727 -0.0054,-0.0502 -0.0092,-0.1007 -0.01466,-0.15096 -0.181275,-1.82452 -0.321482,-3.65769 -0.44618,-5.49451 -0.227292,-4.05487 -0.379878,-8.11876 -0.785552,-12.15624 -0.04852,-0.61928 -0.09722,-1.2388 -0.152635,-1.85687 -0.04285,-0.0801 -0.09851,-0.14346 -0.168752,-0.17757 -0.06305,-0.0883 -0.151648,-0.1523 -0.276781,-0.13615 z M 162.35124,9.063321 c -0.5911,0.76563 -0.10118,1.98736 -0.28317,2.91478 -0.0315,4.02178 -0.004,8.04232 -0.0987,12.06382 -2.23309,0.17091 -4.57255,-0.1934 -6.7506,0.34128 -0.40035,0.79194 0.36079,1.80003 0.39,2.65702 0.66833,2.4879 1.09629,5.08447 1.95479,7.49845 1.31567,0.55983 2.87801,0.0417 4.27554,0.13942 1.81587,-0.66567 1.35187,1.20256 1.50083,2.39003 0.6875,8.57602 0.68236,17.2297 2.07513,25.7353 0.21817,1.58023 2.24717,1.64047 3.38983,2.2258 2.20852,0.74735 4.48408,1.81454 6.86963,1.20817 1.92462,-0.008 3.4612,-1.28266 4.49676,-2.79882 0.71502,-0.9527 1.79481,-1.82758 1.32034,-3.14789 -0.36017,-3.12509 -0.18602,-6.42404 -1.36707,-9.38711 -0.67359,-0.6642 -1.36478,0.57973 -2.04553,0.75572 -1.81023,0.65037 -3.8178,0.44493 -5.713,0.49342 -1.17311,-0.0921 -0.59721,-1.68813 -0.79696,-2.44265 -0.28286,-5.72845 -0.64738,-11.45241 -0.98378,-17.17786 2.95942,-0.21347 5.95419,-0.20755 8.89113,-0.6073 0.43448,-1.26358 0.076,-2.76748 0.17096,-4.1154 -0.27917,-0.90369 0.65659,-3.04247 -0.90225,-2.83782 -2.90411,-0.12794 -5.80824,-0.25596 -8.71234,-0.38377 -0.0645,-3.9476 -0.12899,-7.89493 -0.19316,-11.84254 -1.76869,-1.23099 -3.94852,-2.01363 -5.8987,-3.03049 -0.52552,-0.19996 -1.03161,-0.56686 -1.58963,-0.65154 z M 55.652027,26.027011 c -2.24455,0.082 -4.1415,1.48581 -6.318592,1.90752 -0.983738,0.27591 0.03901,1.40686 0.135266,2.00906 0.679102,1.41718 1.110213,3.04233 2.050348,4.29255 1.847159,-0.46398 3.586031,-1.84604 5.609484,-1.34945 1.162282,0.20478 2.251119,0.6372 3.374709,0.98161 -0.04783,1.70972 0.361999,3.54277 -0.102293,5.1667 -2.63443,0.61987 -5.563191,0.8441 -7.81021,2.49076 -2.216705,1.7576 -3.590936,4.29213 -4.461911,6.94089 -1.055324,2.50056 -0.779318,5.29139 -1.008765,7.93135 1.110073,2.62197 1.856828,5.58174 3.845817,7.7065 2.461276,1.34814 5.448608,0.98504 8.155071,1.01664 3.663539,-0.13698 7.393295,-0.10001 11.010236,-0.45203 -0.268589,-9.84821 -0.70199,-19.73119 -1.130701,-29.58899 -0.04106,-1.69706 -0.146527,-3.49596 -1.352634,-4.82433 -1.274821,-1.79995 -2.914932,-3.82741 -5.333785,-3.82655 -2.210074,-0.22736 -4.437416,-0.4698 -6.662028,-0.40221 z m 50.250593,5.64326 c -1.31694,0.22383 -2.53273,0.87512 -3.86708,1.03213 -2.081847,1.42383 -3.760145,3.4011 -5.408359,5.29787 -2.934575,3.91043 -3.958726,8.97516 -3.979643,13.78015 0.216382,2.48134 2.245163,4.27792 3.508758,6.28188 1.327684,1.59013 2.388529,3.5154 4.089024,4.73482 2.82616,1.14077 5.79035,1.97257 8.74388,2.71905 2.67486,0.43736 5.22126,-0.96736 7.55008,-2.09075 2.48805,-1.48414 4.85504,-3.41924 5.95674,-6.1869 1.01296,-1.86924 2.03337,-3.90386 1.62737,-6.10082 -0.41794,-4.12675 -0.56847,-8.51496 -2.60575,-12.23154 -1.4733,-1.66901 -2.76866,-3.50809 -4.30567,-5.1205 -2.11426,-1.60464 -4.86027,-2.08663 -7.46214,-2.04574 -1.28133,-0.0307 -2.56576,-0.14132 -3.84721,-0.0696 z m 33.60579,0.0453 -0.13718,0.0234 c -2.83241,1.46831 -6.03885,2.45427 -8.42554,4.64114 -1.99881,2.93701 -3.20421,6.38704 -3.97836,9.83683 -0.57527,3.14578 -0.92808,6.65065 0.89554,9.48296 1.70347,2.99214 3.59869,6.26005 6.9292,7.6563 2.41198,1.35527 5.23408,2.16436 7.9884,1.49319 4.59685,-1.0064 9.25114,-3.02303 12.33264,-6.69568 1.52904,-2.67428 2.36191,-5.71461 3.0616,-8.69873 0.56946,-2.40027 0.24737,-4.96456 -1.07101,-7.07192 -1.53046,-2.75271 -3.06815,-5.61325 -5.34896,-7.82097 -3.66729,-2.17946 -8.09837,-2.42688 -12.24633,-2.84654 z m -31.07885,7.23086 c 2.04578,-0.004 4.15141,1.00012 4.95285,2.97769 1.46182,2.74255 2.67198,6.04163 1.4925,9.12729 -0.63539,2.20414 -1.90566,4.80462 -4.49724,5.02829 -1.82289,0.0216 -4.00305,0.11661 -5.33742,-1.38495 -0.70616,-0.64198 -1.88034,-0.91384 -1.9667,-2.041 -0.45215,-2.91064 -1.13707,-5.95794 -0.40934,-8.86829 0.53705,-1.75359 1.56833,-3.52464 3.44206,-4.08548 0.75326,-0.29338 1.4985,-0.71914 2.32332,-0.75355 z m 33.87655,0.0126 c 2.90554,-0.2347 5.01335,2.30004 5.97095,4.7617 1.15285,2.66359 1.34329,5.81695 0.38861,8.56036 -0.9472,1.47517 -2.26969,2.765 -3.67731,3.76724 -2.0587,0.45456 -4.1812,-0.15642 -6.12728,-0.84235 -1.03033,-0.75463 -1.47113,-2.06308 -2.43129,-2.91301 0.1277,-2.65878 -0.50839,-5.43083 0.2787,-8.02097 0.83096,-1.63634 1.65904,-3.38837 2.97095,-4.68573 0.81331,-0.39033 1.72938,-0.57108 2.62662,-0.62724 z m -81.523579,7.37327 c 0.053,1.42186 0.105606,2.84369 0.158609,4.26553 0.02571,3.0217 0.326716,6.07955 -0.223102,9.04174 -0.440932,0.59933 -1.493959,-0.18456 -2.15728,-0.1129 -1.80704,-0.27011 -3.902094,-1.14458 -4.221963,-3.17408 -0.480184,-2.78105 0.116614,-5.76008 1.485809,-8.19239 1.14247,-1.53906 3.254052,-1.53875 4.957944,-1.8279 z m 135.925909,10.93395 c -1.21346,0.041 -2.45623,0.19257 -3.65283,0.16899 -0.20423,-0.0662 -0.33047,0.0783 -0.47599,0.18135 -0.66737,2.0143 -1.63918,3.96241 -2.04415,6.04871 1.44899,1.171 3.33588,1.89345 4.97555,2.84286 0.5618,0.35595 1.29472,0.77303 1.80496,0.096 1.36957,-1.17308 2.87334,-2.27835 3.97649,-3.70696 -0.67596,-1.8704 -1.65674,-3.67655 -2.4476,-5.52244 -0.69089,-0.11729 -1.40835,-0.13293 -2.13643,-0.10855 z" />
  </g>
</svg>
