<?xml version="1.0" encoding="UTF-8" standalone="no"?>
<!-- Created with Inkscape (http://www.inkscape.org/) -->

<svg
   width="72mm"
   height="59mm"
   viewBox="0 0 72 59"
   version="1.1"
   id="svg5"
   inkscape:version="1.1 (c68e22c387, 2021-05-23)"
   sodipodi:docname="kaloot-short.svg"
   inkscape:export-filename="D:\projects\baloot\front\src\assets\kaloot-short.png"
   inkscape:export-xdpi="96"
   inkscape:export-ydpi="96"
   xmlns:inkscape="http://www.inkscape.org/namespaces/inkscape"
   xmlns:sodipodi="http://sodipodi.sourceforge.net/DTD/sodipodi-0.dtd"
   xmlns="http://www.w3.org/2000/svg"
   xmlns:svg="http://www.w3.org/2000/svg">
  <sodipodi:namedview
     id="namedview7"
     pagecolor="#ffffff"
     bordercolor="#666666"
     borderopacity="1.0"
     inkscape:pageshadow="2"
     inkscape:pageopacity="0.0"
     inkscape:pagecheckerboard="0"
     inkscape:document-units="mm"
     showgrid="false"
     inkscape:zoom="0.64854095"
     inkscape:cx="432.50931"
     inkscape:cy="22.357879"
     inkscape:window-width="1920"
     inkscape:window-height="1001"
     inkscape:window-x="-9"
     inkscape:window-y="-9"
     inkscape:window-maximized="1"
     inkscape:current-layer="layer1" />
  <defs
     id="defs2" />
  <g
     inkscape:label="Layer 1"
     inkscape:groupmode="layer"
     id="layer1">
    <g
       id="g2823" />
    <path
       id="path2226"
       style="opacity:0.709343;fill:#054ada;fill-opacity:1;stroke:#ffffff;stroke-width:0.0379844"
       d="m 10.908652,1.3305188 c -0.0486,0.0147 -0.09789,0.02914 -0.146508,0.04392 -0.36208,0.01 -0.8207443,0.194719 -1.2742773,0.380339 -1.964317,0.5920991 -3.9355849,1.1787428 -5.9080129,1.7642325 -0.4613971,0.12707 -0.9166056,0.261671 -1.3628635,0.407211 -0.4942784,0.14674 -0.9870938,0.29548 -1.4809781,0.44235 -3.489e-4,10e-4 5.67e-5,0.0016 -5.815e-4,0.0036 -0.105635,0.38423 -0.1534301,0.783548 -0.1669508,1.192175 -0.0067,0.20415 -0.0052,0.410647 0.00226,0.618567 1.11e-5,2.6e-4 -6.7e-6,8.47e-4 0,0.001 0.00747,0.206759 0.020497,0.415272 0.036343,0.624251 8.23e-5,0.001 -1.253e-4,0.0016 0,0.0036 0.0319,0.41955 0.075311,0.842132 0.1061899,1.261421 8.02e-5,10e-4 -1.219e-4,0.0021 0,0.0041 0.026504,0.360089 0.039392,0.716621 0.033504,1.068151 -9.886e-4,0.0577 0.00177,0.116293 -5.816e-4,0.173633 l 5.816e-4,0.0041 C 1.4033815,23.936291 2.0594737,38.549205 2.7161176,53.162354 l 0.00113,0.0217 c 0.7281615,0.44863 1.8082547,0.31778 2.8194237,0.29714 0.1557174,-0.0011 0.308534,7.94e-4 0.4593983,0.0067 0.02698,0.0011 0.05498,2.9e-5 0.08177,0.0026 0.172499,0.009 0.340564,0.02492 0.501419,0.05271 0.6592811,5.3e-4 1.3235261,0.02397 1.9892131,0.05426 0.114959,0.005 0.229641,0.01114 0.344691,0.01654 0.724957,0.0351 1.4499063,0.06553 2.1737673,0.09043 0.299106,0.01011 0.597529,0.01521 0.895516,0.0186 0.44605,0.005 0.891896,0.0088 1.333902,-0.0083 7.56e-4,-2.9e-5 0.0015,3.2e-5 0.0023,0 0.397544,-5.29e-4 0.796644,0.0047 1.190801,-0.01035 -4.65e-4,-0.0241 -0.0024,-0.04825 -0.0029,-0.07235 0.028,-0.003 0.05661,-0.0037 0.08461,-0.0067 -0.04067,-1.345419 -0.100405,-2.693334 -0.16695,-4.041613 -0.01939,-0.39355 -0.04092,-0.787099 -0.0619,-1.180807 -0.04845,-0.907923 -0.09926,-1.816348 -0.153322,-2.724898 -0.09705,-1.631469 -0.197036,-3.26312 -0.295854,-4.894792 -0.0064,-0.104759 -0.01298,-0.209442 -0.01931,-0.314193 -6.11e-4,-0.01 -9.89e-4,-0.01955 -0.0018,-0.02946 -4.36e-4,-0.008 -7.56e-4,-0.01524 -0.0011,-0.02273 -0.07721,-1.406861 -0.150068,-2.812729 -0.210108,-4.217312 1.970722,-1.960571 3.816078,-4.034467 5.938677,-5.863725 0.447886,1.080098 0.880159,2.166683 1.317435,3.250964 0.0023,0.006 0.0044,0.0113 0.0068,0.01704 0.002,0.005 0.0037,0.0097 0.0057,0.01394 1.734467,4.36413 3.413855,8.747284 5.161844,13.106694 0.513433,1.283049 1.032281,2.564267 1.562182,3.841625 1.43e-4,2.51e-4 -7.8e-5,0.0013 5.82e-4,0.0016 0.335656,0.831059 0.664493,1.664557 1.006248,2.493388 0.692504,0.28221 1.489946,0.293965 2.295289,0.273883 h 0.004 c 0.397608,2.65e-4 0.798117,-0.01225 1.195346,-0.02016 0.02585,-2.64e-4 0.05197,-5.29e-4 0.0778,-5.29e-4 0.201968,0.003 0.401715,0.01027 0.596252,0.02945 0.196108,-0.006 0.395392,-0.0021 0.592845,-0.0041 0.02058,0.0011 0.04194,0.0021 0.06247,0.0031 0.151707,-0.008 0.3077,-0.0037 0.4611,-0.0067 0.0043,-7.9e-5 0.0087,1.51e-4 0.01305,0 0.62157,0.003 1.244605,0.0077 1.866553,0.0067 h 5.81e-4 c 0.07766,2.64e-4 0.154139,-0.0036 0.23169,-0.0036 0.007,-2.9e-5 0.0139,-0.0011 0.02102,-0.0011 0.787103,-0.007 1.56915,-0.03333 2.329362,-0.143144 -0.05227,-0.22406 -0.113697,-0.447646 -0.175471,-0.671275 v -0.0011 c -0.03369,-0.213109 -0.08816,-0.427091 -0.158432,-0.641821 -0.0037,-0.01159 -0.007,-0.02262 -0.01077,-0.03411 -0.07128,-0.213309 -0.15202,-0.427315 -0.24077,-0.641305 -8.72e-4,-0.0021 -0.0014,-0.0042 -0.0023,-0.0062 -0.276472,-0.814332 -0.582457,-1.627976 -0.891541,-2.441196 -0.27621,-0.77886 -0.560006,-1.55542 -0.83816,-2.333707 -0.0031,-0.01 -0.0063,-0.01945 -0.0097,-0.02894 -0.01523,-0.0438 -0.03201,-0.08737 -0.046,-0.13126 -0.953952,-2.657059 -1.908076,-5.314084 -2.862013,-7.971604 -0.185113,-0.515689 -0.37089,-1.031479 -0.555934,-1.547194 -0.402902,-1.119182 -0.800018,-2.240102 -1.200454,-3.360002 -1.236591,-3.459011 -2.461284,-6.920904 -3.640551,-10.396265 1.163183,-1.507931 2.39689,-2.974141 3.649633,-4.428669 0.389232,-0.445741 0.779552,-0.890318 1.169792,-1.335318 1.950382,-2.207296 3.907861,-4.410203 5.780245,-6.669362 0.688912,-0.8159907 1.373397,-1.6348007 2.045432,-2.4623817 -0.0033,-0.0289 -0.01975,-0.0502 -0.02614,-0.077 0.01169,-0.0466 0.0227,-0.09237 0.02385,-0.133842 0.0012,-0.001 0.0023,-0.0026 0.0034,-0.0036 -8.73e-4,-0.002 -0.0029,-0.0037 -0.004,-0.0057 0.0036,-0.42472 -0.568745,-0.568654 -1.118682,-0.705383 -0.183509,-0.0579 -0.371664,-0.110801 -0.561046,-0.162781 -0.0924,-0.0344 -0.175609,-0.07175 -0.241908,-0.116272 -1.238155,-0.38946 -2.471209,-0.849213 -3.706988,-1.283642 -0.07333,-0.0257 -0.146969,-0.0484 -0.220332,-0.0739 -1.137501,-0.39663 -2.277314,-0.770192 -3.426464,-1.037662 -8.72e-4,8.2e-4 -0.0023,0.0016 -0.0029,0.0026 h -5.81e-4 c -0.0065,0.005 -0.01276,0.01145 -0.01931,0.01705 -0.03952,-0.009 -0.07857,-0.02034 -0.118115,-0.02894 -0.801175,0.74768 -1.603161,1.504229 -2.403749,2.25516 -0.0023,0.002 -0.0049,0.0042 -0.0074,0.0062 -0.79127,0.71267 -1.572921,1.435871 -2.353778,2.160591 -0.478824,0.44421 -0.957511,0.888796 -1.433846,1.3358357 -1.328739,1.24775 -2.654284,2.499553 -3.97956,3.751192 -0.152578,0.14401 -0.304992,0.288153 -0.457695,0.432015 -1.167122,1.10023 -2.338265,2.195864 -3.521866,3.276803 -0.489031,0.454782 -0.982063,0.905478 -1.471894,1.361157 -0.0018,0.0021 -0.004,0.0032 -0.0057,0.0052 -0.816211,0.746575 -1.629084,1.496613 -2.450314,2.237073 -0.0059,-0.0502 -0.01044,-0.100634 -0.01647,-0.150894 C 12.721221,19.329929 12.566293,17.496457 12.429265,15.659637 12.180971,11.605018 12.01247,7.5412703 11.566685,3.5037903 11.513365,2.8845106 11.45949,2.2646099 11.398599,1.6465398 c -0.04709,-0.0801 -0.107932,-0.14314 -0.185122,-0.17725 -0.06928,-0.0883 -0.166868,-0.152576 -0.304373,-0.136426 z m 36.91486,34.2563042 c -0.01033,0.0259 -0.02207,0.05127 -0.03293,0.077 0.01125,-0.0024 0.02196,-0.0036 0.03293,-0.0057 0.0026,-0.02365 -0.0029,-0.04767 0,-0.07132 z M 185.23875,54.060116 c -0.0452,5.29e-4 -0.09,0.0066 -0.13515,0.0078 0.50506,0.05873 1.01046,0.112668 1.52414,0.077 -0.0516,-0.0093 -0.0849,-0.02619 -0.14481,-0.03204 -0.41628,-0.04069 -0.83097,-0.05742 -1.24418,-0.05271 z" />
    <path
       style="opacity:0.709343;fill:#054ada;fill-opacity:1;stroke:#ffffff;stroke-width:0.0724704"
       d="m 54.384716,1.7428907 c -0.795502,1.021949 0.571198,2.8854328 0.495615,4.1450109 3.026402,12.7547394 5.788194,25.6088444 9.329856,38.2198224 1.118936,1.014002 1.452835,-1.532895 1.650992,-2.190435 C 67.995919,30.357677 69.785278,18.711713 71.246024,7.0520416 70.786776,4.9747715 67.840215,5.2208745 66.281896,4.4536425 62.34679,3.4565608 58.40888,2.2946277 54.384716,1.7428907 Z"
       id="path4528" />
    <path
       style="opacity:0.709343;fill:#054ada;fill-opacity:1;stroke:#ffffff;stroke-width:0.0724704"
       d="m 65.002979,49.561978 c -1.407115,0.20632 -3.584053,-0.343098 -3.843813,1.658959 -0.270344,1.53285 -2.383793,3.964024 -0.548413,4.779378 1.897639,0.586626 3.729331,2.120299 5.689433,2.221402 1.227066,-1.049454 3.183935,-2.052281 3.562541,-3.690829 -0.6393,-1.744414 -1.279853,-3.655386 -2.331469,-5.125085 -0.842759,0.05206 -1.68552,0.104116 -2.528279,0.156175 z"
       id="path4567" />
  </g>
</svg>
